# xmcd
#
# Track frame offsets: 
#        150
#        25600
#        43789
#        67020
#        85425
#        106507
#        118750
#        153315
#        175935
#        197240
#        204527
#        229340
#        249484
#        265027
#
# Disc length: 3834 seconds
#
# Revision: 0
# Processed by: cddbd v1.5.2PL0 Copyright (c) Steve Scherf et al.
# Submitted via: ExactAudioCopy v1.0b4
#
DISCID=bc0ef80e
DTITLE=Gregor Hilden and Johnny Rogers Band - Soul Serenade
DYEAR=2001
DGENRE=Blues
TTITLE0=I Wonna get Into You
TTITLE1=It's Not Easy
TTITLE2=I've Got To Use My Imagination
TTITLE3=Still In Love With You
TTITLE4=Blues After Midnight
TTITLE5=Rock Candy
TTITLE6=I Love You More Than You'll Ever Know
TTITLE7=Leaving This Town
TTITLE8=Soul Serenade
TTITLE9=Junkie Case
TTITLE10=One More Time
TTITLE11=Cadillac Assembly Line
TTITLE12=Sweet Rain
TTITLE13=Give Me Strength
EXTD=
EXTT0=
EXTT1=
EXTT2=
EXTT3=
EXTT4=
EXTT5=
EXTT6=
EXTT7=
EXTT8=
EXTT9=
EXTT10=
EXTT11=
EXTT12=
EXTT13=
PLAYORDER=
